<?xml version="1.0" encoding="UTF-8" standalone="no"?>
<!-- Created with Inkscape (http://www.inkscape.org/) -->

<svg
   width="210mm"
   height="297mm"
   viewBox="0 0 210 297"
   version="1.1"
   id="svg1"
   inkscape:version="1.4.2 (f4327f4, 2025-05-13)"
   sodipodi:docname="logo.svg"
   xmlns:inkscape="http://www.inkscape.org/namespaces/inkscape"
   xmlns:sodipodi="http://sodipodi.sourceforge.net/DTD/sodipodi-0.dtd"
   xmlns:xlink="http://www.w3.org/1999/xlink"
   xmlns="http://www.w3.org/2000/svg"
   xmlns:svg="http://www.w3.org/2000/svg">
  <sodipodi:namedview
     id="namedview1"
     pagecolor="#ffffff"
     bordercolor="#000000"
     borderopacity="0.25"
     inkscape:showpageshadow="2"
     inkscape:pageopacity="0.0"
     inkscape:pagecheckerboard="0"
     inkscape:deskcolor="#d1d1d1"
     inkscape:document-units="mm"
     inkscape:zoom="1.4485269"
     inkscape:cx="313.42186"
     inkscape:cy="521.56434"
     inkscape:window-width="1920"
     inkscape:window-height="1094"
     inkscape:window-x="-11"
     inkscape:window-y="-11"
     inkscape:window-maximized="1"
     inkscape:current-layer="layer1"
     showguides="true" />
  <defs
     id="defs1">
    <linearGradient
       id="linearGradient132"
       inkscape:collect="always">
      <stop
         style="stop-color:#ff0000;stop-opacity:1;"
         offset="0"
         id="stop132" />
      <stop
         style="stop-color:#000000;stop-opacity:0;"
         offset="1"
         id="stop133" />
    </linearGradient>
    <linearGradient
       id="linearGradient129"
       inkscape:collect="always">
      <stop
         style="stop-color:#d4ff2a;stop-opacity:1;"
         offset="0"
         id="stop130" />
      <stop
         style="stop-color:#000000;stop-opacity:0;"
         offset="1"
         id="stop131" />
    </linearGradient>
    <linearGradient
       id="linearGradient128"
       inkscape:collect="always">
      <stop
         style="stop-color:#aade87;stop-opacity:1;"
         offset="0"
         id="stop128" />
      <stop
         style="stop-color:#aade87;stop-opacity:0;"
         offset="1"
         id="stop129" />
    </linearGradient>
    <linearGradient
       id="linearGradient125"
       inkscape:collect="always">
      <stop
         style="stop-color:#aade87;stop-opacity:1;"
         offset="0"
         id="stop125" />
      <stop
         style="stop-color:#000000;stop-opacity:0;"
         offset="1"
         id="stop126" />
    </linearGradient>
    <linearGradient
       id="linearGradient121"
       inkscape:collect="always">
      <stop
         style="stop-color:#ff0000;stop-opacity:1;"
         offset="0"
         id="stop121" />
      <stop
         style="stop-color:#ff0000;stop-opacity:0;"
         offset="1"
         id="stop122" />
    </linearGradient>
    <linearGradient
       id="linearGradient117"
       inkscape:collect="always">
      <stop
         style="stop-color:#d4ff2a;stop-opacity:1;"
         offset="0"
         id="stop117" />
      <stop
         style="stop-color:#d4ff2a;stop-opacity:0;"
         offset="1"
         id="stop118" />
    </linearGradient>
    <linearGradient
       id="linearGradient110"
       inkscape:collect="always">
      <stop
         style="stop-color:#7900ff;stop-opacity:1;"
         offset="0"
         id="stop110" />
      <stop
         style="stop-color:#8500f9;stop-opacity:0;"
         offset="1"
         id="stop111" />
    </linearGradient>
    <linearGradient
       id="linearGradient108"
       inkscape:collect="always">
      <stop
         style="stop-color:#7c00ff;stop-opacity:1;"
         offset="0"
         id="stop108" />
      <stop
         style="stop-color:#000000;stop-opacity:0;"
         offset="1"
         id="stop109" />
    </linearGradient>
    <linearGradient
       id="linearGradient106"
       inkscape:collect="always">
      <stop
         style="stop-color:#004900;stop-opacity:1;"
         offset="0"
         id="stop106" />
      <stop
         style="stop-color:#00ff00;stop-opacity:0;"
         offset="1"
         id="stop107" />
    </linearGradient>
    <linearGradient
       id="linearGradient100"
       inkscape:collect="always">
      <stop
         style="stop-color:#004600;stop-opacity:1;"
         offset="0"
         id="stop100" />
      <stop
         style="stop-color:#00ff00;stop-opacity:0;"
         offset="1"
         id="stop101" />
    </linearGradient>
    <linearGradient
       id="linearGradient98"
       inkscape:collect="always">
      <stop
         style="stop-color:#0040ff;stop-opacity:1;"
         offset="0"
         id="stop98" />
      <stop
         style="stop-color:#0000ff;stop-opacity:0;"
         offset="1"
         id="stop99" />
    </linearGradient>
    <linearGradient
       id="swatch91"
       inkscape:swatch="solid">
      <stop
         style="stop-color:#000000;stop-opacity:1;"
         offset="0"
         id="stop91" />
    </linearGradient>
    <linearGradient
       id="linearGradient87"
       inkscape:collect="always">
      <stop
         style="stop-color:#0040ff;stop-opacity:1;"
         offset="0"
         id="stop87" />
      <stop
         style="stop-color:#0000ff;stop-opacity:0;"
         offset="1"
         id="stop88" />
    </linearGradient>
    <linearGradient
       id="linearGradient85"
       inkscape:collect="always">
      <stop
         style="stop-color:#009a1e;stop-opacity:0.96078432;"
         offset="0"
         id="stop85" />
      <stop
         style="stop-color:#00ff75;stop-opacity:0.95686275;"
         offset="1"
         id="stop86" />
    </linearGradient>
    <linearGradient
       id="linearGradient83"
       inkscape:collect="always">
      <stop
         style="stop-color:#008f15;stop-opacity:0.96078432;"
         offset="0"
         id="stop83" />
      <stop
         style="stop-color:#00f470;stop-opacity:1;"
         offset="1"
         id="stop84" />
    </linearGradient>
    <linearGradient
       id="linearGradient81"
       inkscape:collect="always">
      <stop
         style="stop-color:#00ff75;stop-opacity:0.95698923;"
         offset="0.3487395"
         id="stop81" />
      <stop
         style="stop-color:#007700;stop-opacity:0.95999998;"
         offset="1"
         id="stop82" />
    </linearGradient>
    <symbol
       id="sjjb-landuse.svg:deciduous"
       viewBox="0 0 288.16751 380.65134">
      <title
         id="title4">Deciduous</title>
      <path
         d="M 140.44099,0.00968848 C 114.65602,-0.42616152 87.514804,13.842162 82.029074,43.083682 c -2.32265,12.38073 -4.26272,16.36197 -18.91678,16.61609 -45.14248,0.78284 -64.34062,67.141938 -26.20228,98.418328 3.77898,3.09912 1.60198,5.79066 -11.11999,15.46574 -64.74575,49.23923 4.96978,147.49106 71.19352,100.33558 9.695486,-6.90379 11.232926,-6.97933 13.420676,-1.27816 4.6179,12.03405 2.56556,69.81761 -3.1954,88.95995 l -5.75172,19.04458 h 34.63815 c 3.42918,0 5.14442,0.012 7.92459,0 2.81489,0.0125 4.56792,0 8.0524,0 h 34.63815 l -5.6239,-19.04458 c -5.76097,-19.14234 -7.94117,-76.9259 -3.32322,-88.95995 2.18775,-5.70117 3.72519,-5.62563 13.42068,1.27816 66.22375,47.15548 135.93927,-51.09635 71.19352,-100.33558 -12.72197,-9.67508 -15.55502,-13.7148 -10.99217,-15.46574 38.13833,-14.63508 17.70294,-90.978948 -26.3301,-98.418328 -14.45148,-2.44155 -16.46631,-4.23536 -18.78896,-16.61609 -5.74546,-30.62582 -35.30299,-44.7261235 -62.11859,-42.81837352 -1.22216,-0.08753 -2.47574,-0.23481 -3.70666,-0.25562 z"
         id="path4-1" />
    </symbol>
    <clipPath
       clipPathUnits="userSpaceOnUse"
       id="clipPath56">
      <path
         id="path57"
         style="fill:#ff0000;fill-opacity:1;fill-rule:nonzero;stroke:none;stroke-width:0.264583"
         d="m 94.503277,143.22692 v 24.19955 h 9.167913 c 0.0129,-0.0988 0.0329,-0.197 0.0501,-0.29507 -0.0305,-0.0269 -0.0284,-0.0662 0.005,-0.14004 0.0165,-0.0356 0.0342,-0.0674 0.0532,-0.0987 0.0385,-0.15526 0.0734,-0.31155 0.10387,-0.46871 0.006,-0.0363 0.0131,-0.0722 0.0191,-0.10852 0.037,-0.20863 0.15572,-0.30224 0.26303,-0.29662 0.0648,0.003 0.12555,0.0428 0.16175,0.11472 0.0523,-0.0453 0.11012,-0.0804 0.16847,-0.0842 0.0138,-7.9e-4 0.0266,2.7e-4 0.0403,0.003 0.008,0.002 0.0147,0.004 0.0217,0.006 0.001,-0.0217 0.002,-0.043 0.004,-0.0646 2e-4,-0.003 0.024,-0.37091 0.032,-0.40411 0.0103,-0.0437 0.009,-0.12823 0.0481,-0.13281 0.003,-2.7e-4 0.005,-5.3e-4 0.008,0 0.27921,0.0408 0.37321,0.0702 0.40773,0.1452 0.0547,-0.006 0.1213,0.009 0.20309,0.0517 0.0665,0.0351 0.0906,0.11454 0.10955,0.19431 0.0207,-0.0259 0.041,-0.0518 0.062,-0.0775 10e-4,-0.0242 0.003,-0.0486 0.005,-0.0729 l 5.3e-4,-0.001 c 0.0181,-0.2253 0.14158,-0.33797 0.2558,-0.33797 0.0304,0 0.0604,0.008 0.0873,0.0238 0.0623,-0.0448 0.12321,-0.0641 0.17725,-0.0641 0.16748,1.2e-4 0.26538,0.18944 0.108,0.4072 0.0587,0.03 0.0865,0.20047 0.10026,0.34108 0.0202,0.0103 0.0403,0.0205 0.061,0.0289 0.067,0.0527 0.13016,0.10963 0.19069,0.1695 0.0634,-0.19681 0.16297,-0.44944 0.29766,-0.43925 0.34882,0.0264 0.36076,0.19054 0.42426,0.42684 0.0184,0.0685 0.0315,0.13813 0.0475,0.20722 0.0191,0.082 0.0279,0.1289 0.0398,0.17363 0.0111,-0.021 0.0222,-0.0418 0.0331,-0.063 0.14359,-0.27972 0.22278,-0.52596 0.63613,-0.23305 0.0175,0.0124 0.0351,0.0472 0.0512,0.0935 0.10166,-0.0551 0.21505,-0.0747 0.33538,-0.0289 0.038,0.0144 0.0653,0.0309 0.0884,0.0506 0.0105,-0.0308 0.0229,-0.0615 0.0377,-0.0925 0.066,0.006 0.13319,0.005 0.19999,0.008 0.0184,-0.0465 0.0362,-0.0934 0.0765,-0.11885 0.15252,-0.0961 0.25442,-0.0456 0.36225,0.047 0.0707,0.0607 0.10128,0.16072 0.13488,0.24392 0.0195,0.0612 0.0412,0.12116 0.0713,0.17776 0.17513,0.32942 -0.0819,0.53125 -0.28835,0.36329 -0.0284,0.0854 -0.0812,0.14558 -0.25477,0.15554 -0.0968,0.006 -0.15236,-0.0504 -0.18706,-0.12402 -0.0338,0.0145 -0.0756,0.0201 -0.13436,0.015 0.002,0.009 0.005,0.0175 0.008,0.0253 0.0164,0.091 0.0283,0.18259 0.0382,0.2744 h 10.26656 v -24.19955 z m 12.453503,22.91746 v 5.3e-4 5.3e-4 l -5.3e-4,5.3e-4 c -5.3e-4,0.001 -7.9e-4,0.003 -0.002,0.004 -0.008,0.0238 -0.0161,0.0476 -0.0253,0.0708 0.0163,-0.0255 0.0276,-0.0693 0.0279,-0.0754 v -5.2e-4 -5.3e-4 z m -0.7891,0.52038 c -0.003,0.0325 -0.006,0.0647 -0.0104,0.0971 0.0323,0.004 0.0644,0.009 0.0966,0.0134 0.001,-0.003 0.002,-0.007 0.004,-0.0104 -0.0296,-0.0338 -0.0597,-0.0671 -0.0899,-0.10025 z m 2.02572,0.14728 c -0.003,2.3e-4 -0.005,7.9e-4 -0.007,0.002 l -5.3e-4,5.3e-4 c -0.008,0.005 -0.0151,0.0104 -0.0222,0.016 0.007,-3e-5 0.0139,-2.3e-4 0.0191,-0.002 0.0145,-0.004 0.022,-0.007 0.0248,-0.01 h 5.3e-4 v -5.3e-4 l 5.3e-4,-5.3e-4 v -5.3e-4 h 5.3e-4 v -5.3e-4 -5.3e-4 h -5.3e-4 v -5.3e-4 -5.2e-4 h -5.3e-4 v -5.3e-4 h -5.3e-4 c -0.003,-0.002 -0.009,-0.003 -0.0139,-0.003 z m -0.0765,0.0563 v 5.3e-4 h -5.3e-4 c -0.007,0.006 -0.0134,0.0114 -0.0202,0.0171 0.01,5.3e-4 0.0196,0.001 0.03,0.003 -0.003,-0.007 -0.006,-0.0136 -0.009,-0.0202 z m -3.92792,0.26303 v 5.3e-4 c -0.003,0.0122 -0.007,0.0245 -0.0103,0.0367 -0.004,0.0236 -0.008,0.0472 -0.0124,0.0708 0.0242,-0.0263 0.0488,-0.052 0.0734,-0.078 2.5e-4,-0.002 2.6e-4,-0.004 5.2e-4,-0.006 -0.0183,-0.005 -0.0354,-0.013 -0.0512,-0.0238 z m 4.10621,0.0744 -5.3e-4,5.3e-4 v 5.3e-4 c -10e-4,0.003 -0.003,0.005 -0.004,0.008 0.003,-5.3e-4 0.006,-5.3e-4 0.0103,-0.002 v -5.3e-4 h 5.3e-4 v -5.2e-4 l -5.3e-4,-0.001 v -5.3e-4 -5.3e-4 l -5.3e-4,-5.3e-4 c -2e-4,-2e-4 -0.001,-7.9e-4 -0.002,-0.001 l -5.2e-4,-5.3e-4 h -5.3e-4 -5.3e-4 l -5.3e-4,-5.3e-4 -5.3e-4,-5.3e-4 h -5.3e-4 z m -3.61632,0.15555 c -0.003,0.003 -0.006,0.006 -0.009,0.009 -0.003,0.0188 -0.006,0.0376 -0.008,0.0563 h 0.0491 c -0.002,-0.003 -0.004,-0.006 -0.006,-0.009 -0.0111,-0.0171 -0.0197,-0.0359 -0.0264,-0.0563 z" />
    </clipPath>
    <clipPath
       clipPathUnits="userSpaceOnUse"
       id="clipPath80">
      <path
         id="path81"
         style="fill:#ff0000;fill-opacity:1;fill-rule:nonzero;stroke:none;stroke-width:0.264583"
         d="m 63.014757,180.3492 -26.596824,5.3e-4 v 20.82508 h 9.773046 c 0.0011,-0.025 0.0021,-0.05 0.0031,-0.0749 0.02767,-0.80383 0.0254,-1.60819 0.04082,-2.41226 0.02947,-0.65347 -2.38e-4,-1.31107 0.09095,-1.96008 0.0417,-0.29677 0.205605,-0.43406 0.358119,-0.43098 0.17285,0.004 0.331174,0.18704 0.28112,0.52296 -0.04676,0.31391 -0.05858,0.63085 -0.06356,0.94826 0.07876,-0.17567 0.165587,-0.41962 0.409792,-0.42633 0.06841,-0.002 0.134675,0.0198 0.197921,0.0512 -0.160842,-0.57221 -0.329305,-1.14245 -0.508494,-1.70945 -0.11439,-0.36194 0.05376,-0.58458 0.249594,-0.57826 0.133999,0.004 0.281163,0.11572 0.35967,0.36328 0.123507,0.38948 0.24172,0.78039 0.356049,1.17254 0.176967,-0.0141 0.361551,0.007 0.500746,0.10335 0.122848,0.0851 0.07326,0.28698 0.09198,0.43822 0.01553,-0.002 0.03116,-0.004 0.04702,-0.005 0.07186,-0.0956 0.162256,-0.20237 0.278019,-0.2098 0.442211,-0.0291 0.473501,0.25825 0.509532,0.54725 0.0013,0.0704 0.0011,0.1405 5.29e-4,0.21084 0.0033,-0.0115 0.0069,-0.0227 0.01035,-0.0341 v -0.001 c 0.05695,-0.18775 0.15475,-0.30109 0.257866,-0.35037 0.02959,-0.0997 0.06767,-0.19435 0.146762,-0.25425 0.115831,-0.0877 0.268337,-0.12819 0.418578,-0.13435 0.05008,-0.002 0.10015,-2.6e-4 0.14831,0.005 0.09557,0.0102 0.13091,0.14096 0.196371,0.21136 0.04544,0.10552 0.104463,0.20576 0.135908,0.31626 0.06596,0.23172 0.107636,0.70964 0.128675,0.93534 0.01386,0.14878 0.02646,0.29755 0.03876,0.44649 0.04105,-0.0746 0.09468,-0.14185 0.141076,-0.21343 0.111837,-0.0495 0.216241,-0.17581 0.33538,-0.14831 0.08048,0.0186 0.145775,0.0449 0.19947,0.078 0.01061,-0.0481 0.02143,-0.0961 0.03204,-0.14417 0.118819,-0.762 0.26557,-1.51931 0.410826,-2.27687 0.01286,-0.0382 -5.29e-4,-0.1193 0.03617,-0.11885 2.65e-4,0 7.94e-4,-4e-5 0.0011,0 5.29e-4,1e-4 0.0019,5.3e-4 0.0026,5.3e-4 0.131998,0.0189 0.272474,0.0411 0.39946,0.0873 0.392645,-0.0912 0.324237,0.008 0.221176,0.1235 0.0011,7.9e-4 0.0021,0.002 0.0031,0.003 0.07467,0.0641 -0.01831,0.19622 -0.03307,0.29351 -0.03535,0.23307 -0.0777,0.46473 -0.123508,0.69609 0.213008,0.0812 0.441571,0.19211 0.565857,0.38291 0.06985,0.10726 -0.04552,0.25233 -0.07338,0.37725 -0.09305,0.41728 -0.183774,0.73734 -0.29559,1.15445 -0.177564,0.62603 -0.347083,1.254 -0.533818,1.87741 -0.01442,0.0481 -0.02757,0.0932 -0.04031,0.13642 H 63.014857 Z M 51.18654,199.82139 c -0.167454,0.44371 -0.33216,0.89036 -0.57981,1.29605 -0.0955,-0.0114 -0.193474,-0.0128 -0.29042,-0.0181 -0.0024,0.0251 -0.0049,0.0499 -0.0072,0.0749 h 0.653708 c 0.06165,-0.25836 0.122339,-0.51679 0.181902,-0.77566 0.01611,-0.18728 0.03396,-0.38774 0.04186,-0.57723 z m -4.33152,0.70746 c -0.004,0.19899 -0.0091,0.3979 -0.01601,0.59686 -5.29e-4,0.0163 -0.0013,0.0327 -0.0021,0.0491 h 0.14573 c -0.0028,-0.0468 0.01664,-0.10866 0.01394,-0.15451 -0.0087,-0.14674 -0.01373,-0.29413 -0.01704,-0.44132 -0.04698,-0.0145 -0.08827,-0.0313 -0.124542,-0.0501 z m 2.136823,0.2129 c 0.02917,0.14409 0.05811,0.28825 0.0863,0.43253 h 0.185002 c 0.05322,-0.13459 0.0966,-0.27254 0.135908,-0.41186 -0.13595,0.0179 -0.27891,0.0174 -0.407209,-0.0207 z m -0.664044,0.10025 c -0.01934,0.1109 -0.0382,0.22186 -0.05736,0.3328 h 0.121957 c -0.0249,-0.11037 -0.04612,-0.22138 -0.0646,-0.3328 z m -1.282091,0.22428 v 5.3e-4 h -5.29e-4 -5.29e-4 -5.29e-4 l -5.3e-4,5.3e-4 h -5.29e-4 l -5.29e-4,5.3e-4 h -5.29e-4 l -5.29e-4,5.3e-4 -5.29e-4,5.3e-4 c -0.004,0.008 -0.0019,0.0316 0.0031,0.0765 0.0034,-0.0257 0.0068,-0.0513 0.0098,-0.077 -0.0019,-5.3e-4 -0.0043,-0.002 -0.0057,-0.002 h -5.3e-4 c -2.64e-4,-2e-5 -0.0013,-1e-5 -0.0016,0 z" />
    </clipPath>
    <linearGradient
       inkscape:collect="always"
       xlink:href="#linearGradient81"
       id="linearGradient82"
       x1="49.716396"
       y1="177.46353"
       x2="49.716396"
       y2="204.06046"
       gradientUnits="userSpaceOnUse"
       spreadMethod="pad" />
    <linearGradient
       inkscape:collect="always"
       xlink:href="#linearGradient83"
       id="linearGradient84"
       x1="106.41272"
       y1="158.59029"
       x2="106.41272"
       y2="167.58766"
       gradientUnits="userSpaceOnUse"
       gradientTransform="translate(-0.09132841,0.0456642)" />
    <linearGradient
       inkscape:collect="always"
       xlink:href="#linearGradient85"
       id="linearGradient86"
       x1="106.43765"
       y1="158.50111"
       x2="106.43765"
       y2="167.70128"
       gradientUnits="userSpaceOnUse"
       gradientTransform="translate(-0.09132841,0.0456642)" />
    <linearGradient
       inkscape:collect="always"
       xlink:href="#linearGradient100"
       id="linearGradient101"
       x1="107.39388"
       y1="168.17317"
       x2="140.05649"
       y2="168.17317"
       gradientUnits="userSpaceOnUse" />
    <linearGradient
       inkscape:collect="always"
       xlink:href="#linearGradient87"
       id="linearGradient102"
       gradientUnits="userSpaceOnUse"
       x1="106.73059"
       y1="164.32815"
       x2="136.3909"
       y2="164.32815" />
    <linearGradient
       inkscape:collect="always"
       xlink:href="#linearGradient98"
       id="linearGradient103"
       gradientUnits="userSpaceOnUse"
       x1="121.49542"
       y1="149.88312"
       x2="121.49542"
       y2="178.92557" />
    <linearGradient
       inkscape:collect="always"
       xlink:href="#linearGradient87"
       id="linearGradient104"
       gradientUnits="userSpaceOnUse"
       x1="106.73059"
       y1="164.32815"
       x2="136.3909"
       y2="164.32815" />
    <linearGradient
       inkscape:collect="always"
       xlink:href="#linearGradient98"
       id="linearGradient105"
       gradientUnits="userSpaceOnUse"
       x1="121.49542"
       y1="149.88312"
       x2="121.49542"
       y2="178.92557" />
    <linearGradient
       inkscape:collect="always"
       xlink:href="#linearGradient106"
       id="linearGradient107"
       x1="123.72519"
       y1="151.84187"
       x2="123.72519"
       y2="184.50447"
       gradientUnits="userSpaceOnUse" />
    <linearGradient
       inkscape:collect="always"
       xlink:href="#linearGradient108"
       id="linearGradient109"
       x1="124.78073"
       y1="155.1274"
       x2="124.78073"
       y2="189.09636"
       gradientUnits="userSpaceOnUse" />
    <linearGradient
       inkscape:collect="always"
       xlink:href="#linearGradient110"
       id="linearGradient111"
       x1="124.78073"
       y1="155.1274"
       x2="124.78073"
       y2="189.09636"
       gradientUnits="userSpaceOnUse" />
    <linearGradient
       inkscape:collect="always"
       xlink:href="#linearGradient117"
       id="linearGradient118"
       x1="88.824661"
       y1="151.37202"
       x2="88.824661"
       y2="184.03462"
       gradientUnits="userSpaceOnUse" />
    <linearGradient
       inkscape:collect="always"
       xlink:href="#linearGradient121"
       id="linearGradient122"
       x1="70.784634"
       y1="171.64204"
       x2="104.75359"
       y2="171.64204"
       gradientUnits="userSpaceOnUse" />
    <linearGradient
       inkscape:collect="always"
       xlink:href="#linearGradient125"
       id="linearGradient126"
       x1="76.158951"
       y1="163.85831"
       x2="105.81925"
       y2="163.85831"
       gradientUnits="userSpaceOnUse" />
    <radialGradient
       inkscape:collect="always"
       xlink:href="#linearGradient128"
       id="radialGradient129"
       cx="90.989101"
       cy="163.85831"
       fx="90.989101"
       fy="163.85831"
       r="14.83015"
       gradientTransform="matrix(1,0,0,0.67110643,0,53.891946)"
       gradientUnits="userSpaceOnUse" />
    <linearGradient
       inkscape:collect="always"
       xlink:href="#linearGradient129"
       id="linearGradient131"
       x1="72.493358"
       y1="167.70333"
       x2="105.15596"
       y2="167.70333"
       gradientUnits="userSpaceOnUse" />
    <linearGradient
       inkscape:collect="always"
       xlink:href="#linearGradient132"
       id="linearGradient133"
       x1="87.769119"
       y1="154.65756"
       x2="87.769119"
       y2="188.62653"
       gradientUnits="userSpaceOnUse" />
  </defs>
  <g
     inkscape:label="Parte_Direita"
     inkscape:groupmode="layer"
     id="layer1">
    <path
       style="fill:url(#radialGradient129);stroke:url(#linearGradient126);stroke-width:0.5;stroke-dasharray:none;stroke-opacity:1"
       d="m 105.57564,173.70664 c -1.67966,-7.28607 -19.984899,-19.2436 -27.581179,-19.54428 l -1.461252,3.47049 c 8.600206,0.124 26.303861,10.10697 29.042431,16.07379 z"
       id="path2"
       sodipodi:nodetypes="cccc" />
    <path
       style="fill:url(#linearGradient118);stroke:url(#linearGradient131);stroke-width:0.5;stroke-dasharray:none;stroke-opacity:1"
       d="m 104.93414,173.88062 c -3.44859,-6.63439 -24.162753,-13.63353 -31.592802,-12.02474 l -0.546801,3.72567 c 8.35788,-2.03095 27.995713,3.20685 32.139603,8.29907 z"
       id="path2-2"
       sodipodi:nodetypes="cccc" />
    <path
       style="fill:url(#linearGradient122);stroke:url(#linearGradient133);stroke-width:0.5;stroke-dasharray:none;stroke-opacity:1"
       d="m 104.56439,174.66059 c -4.887294,-5.65881 -26.657813,-7.68587 -33.515609,-4.40494 l 0.32824,3.75125 c 7.663075,-3.90592 27.979655,-3.34408 33.187369,0.65369 z"
       id="path2-2-2"
       sodipodi:nodetypes="cccc" />
  </g>
  <g
     inkscape:groupmode="layer"
     id="layer3"
     inkscape:label="Capa"
     sodipodi:insensitive="true">
    <path
       style="fill:none;stroke:#000000;stroke-width:0.499999;stroke-dasharray:none;stroke-opacity:1"
       d="m 67.420412,176.68798 c 13.391075,-4.72878 28.084976,-6.33753 36.422528,-1.16242 0.83805,2.46228 3.30354,2.58725 3.87473,0.64581 12.96893,-5.57358 25.08152,-2.52492 36.93915,-0.25832"
       id="path8"
       sodipodi:nodetypes="cccc" />
    <path
       style="fill:none;stroke:#000000;stroke-width:0.499999;stroke-dasharray:none;stroke-opacity:1"
       d="m 66.322572,180.43356 c 12.502659,-4.24719 25.137231,-8.818 36.422518,-3.681 1.96203,2.40621 3.7425,3.61979 5.87669,1.03324 6.8131,-3.72905 21.46384,-3.07634 37.19746,1.42074"
       id="path9"
       sodipodi:nodetypes="cccc" />
    <path
       style="fill:none;stroke:#000000;stroke-width:0.499999;stroke-dasharray:none;stroke-opacity:1"
       d="m 67.674354,176.90313 -1.095941,3.28783 c 0,0 0.09133,0.36531 0.09133,0"
       id="path10" />
    <path
       style="fill:none;stroke:#000000;stroke-width:0.499999;stroke-dasharray:none;stroke-opacity:1"
       d="m 144.20756,175.71586 1.46126,3.56181"
       id="path11" />
  </g>
  <g
     inkscape:groupmode="layer"
     id="layer4"
     inkscape:label="Flecha"
     sodipodi:insensitive="true">
    <path
       style="fill:url(#linearGradient86);stroke:url(#linearGradient84);stroke-width:0.155155"
       d="m 104.17266,169.73501 -0.12699,-3.09705 0.0584,-3.23532 -0.94008,-0.79404 c -0.78594,-0.66384 -1.3339,0.85195 -1.34122,0.84395 -0.0203,-0.0222 4.48377,-8.63265 4.52206,-8.64476 0.0184,-0.006 1.0329,1.94679 2.25435,4.33915 l 2.18858,3.89772 -1.50984,-0.36053 -0.7059,0.82738 -0.0269,1.37954 c -0.01,0.49179 -0.0526,3.18854 -0.0526,3.18854 l -0.0524,1.75652 -2.02183,1.62539 z"
       id="path13"
       sodipodi:nodetypes="cccsssscccscccc" />
  </g>
  <g
     inkscape:groupmode="layer"
     id="layer5"
     inkscape:label="Arvore"
     sodipodi:insensitive="true">
    <path
       style="mix-blend-mode:normal;fill:#000000;stroke:url(#linearGradient82)"
       d="m 44.920412,200.59736 c -3.063236,1.35554 -6.677209,0.24285 -8.068426,-2.48417 -0.996234,-1.95278 -0.250182,-4.01614 1.955589,-5.40858 0.879589,-0.55526 0.99781,-0.72041 0.653591,-0.91305 -0.726041,-0.40631 -1.5197,-1.97371 -1.5197,-3.00127 0,-2.25075 1.375075,-3.70085 3.978539,-4.19562 1.437552,-0.27319 1.601362,-0.37477 1.857872,-1.152 0.348463,-1.05585 1.726593,-2.29595 3.070583,-2.76303 1.279021,-0.4445 4.40103,-0.43873 5.733928,0.0106 1.335481,0.45019 2.720184,1.69072 3.069849,2.75022 0.24335,0.73735 0.460802,0.89297 1.638794,1.17279 1.731985,0.41143 2.938106,1.33518 3.6421,2.78943 0.814585,1.68271 0.737575,2.95804 -0.237499,3.93311 -0.436562,0.43657 -0.79375,0.82831 -0.79375,0.87053 0,0.0422 0.479741,0.39426 1.06609,0.78229 1.371154,0.90739 2.250326,2.62909 2.00642,3.92922 -0.627619,3.3455 -4.961361,5.22951 -8.463955,3.67954 -3.496149,-1.54713 -8.880303,-0.31408 -9.590025,-1e-5 z m 9.174238,-0.82868 c 2.496513,1.27363 5.508835,0.87318 7.10477,-0.94449 1.665434,-1.89683 1.296539,-3.89642 -1.026761,-5.56555 -0.73101,-0.52517 -1.328356,-1.09252 -1.327436,-1.26078 9.2e-4,-0.16825 0.353834,-0.50627 0.784252,-0.75117 1.392603,-0.79235 1.39069,-2.9664 -0.004,-4.55487 -0.784423,-0.89341 -1.339558,-1.18069 -3.30662,-1.71119 -0.931223,-0.25114 -1.139278,-0.4536 -1.609246,-1.56598 -0.675055,-1.59781 -1.84964,-2.23405 -4.412321,-2.39003 -3.159962,-0.19234 -5.448759,0.9282 -5.876818,2.87713 -0.193753,0.88216 -0.934657,1.30791 -2.276025,1.30791 -1.880713,0 -3.406463,1.62828 -3.408231,3.63726 -8.04e-4,0.91338 0.172351,1.31558 0.925053,2.14874 0.509323,0.56376 0.926041,1.09416 0.926041,1.17867 0,0.0845 -0.544771,0.52847 -1.210602,0.98658 -2.596668,1.78655 -2.924426,4.0667 -0.861447,5.9929 1.610517,1.50373 3.930505,1.7684 6.437674,0.73443 2.762925,0.20596 6.063498,-1.13572 9.141717,-0.11956 z"
       id="path67"
       sodipodi:nodetypes="ssssssssssssssssssssssssssssssssssss"
       clip-path="url(#clipPath80)"
       transform="translate(56.94002,-37.754564)" />
  </g>
  <g
     inkscape:groupmode="layer"
     id="layer2"
     inkscape:label="Parte_Esquerda"
     sodipodi:insensitive="true">
    <use
       x="0"
       y="0"
       xlink:href="#path2-2-2-5"
       id="use8-5" />
    <use
       x="0"
       y="0"
       xlink:href="#path2-2-8"
       id="use7-9" />
    <path
       style="fill:url(#linearGradient102);stroke:url(#linearGradient103);stroke-width:0.5;stroke-dasharray:none;stroke-dashoffset:0;stroke-opacity:1"
       d="m 106.9742,174.17648 c 1.67967,-7.28607 19.98491,-19.2436 27.58119,-19.54428 l 1.46125,3.47049 c -8.60021,0.124 -26.30386,10.10697 -29.04244,16.07379 z"
       id="use6-7"
       sodipodi:nodetypes="cccc" />
    <path
       style="fill:none;stroke:#000000;stroke-width:0.5;stroke-dasharray:none;stroke-opacity:1"
       d="m 107.98545,175.13043 c 4.8873,-5.65881 26.65782,-7.68587 33.51562,-4.40494 l -0.32824,3.75125 c -7.66308,-3.90592 -27.97966,-3.34408 -33.18738,0.65369 z"
       id="path6-2"
       sodipodi:nodetypes="cccc" />
    <path
       style="fill:none;stroke:#000000;stroke-width:0.5;stroke-dasharray:none;stroke-opacity:1"
       d="m 106.9742,174.17648 c 1.67967,-7.28607 19.98491,-19.2436 27.58119,-19.54428 l 1.46125,3.47049 c -8.60021,0.124 -26.30386,10.10697 -29.04244,16.07379 z"
       id="path4-8"
       sodipodi:nodetypes="cccc" />
    <path
       style="fill:none;stroke:#000000;stroke-width:0.5;stroke-dasharray:none;stroke-opacity:1"
       d="m 107.6157,174.35046 c 3.4486,-6.63439 24.16276,-13.63353 31.59281,-12.02474 l 0.5468,3.72567 c -8.35788,-2.03095 -27.99571,3.20685 -32.13961,8.29907 z"
       id="path5-9"
       sodipodi:nodetypes="cccc" />
    <use
       x="0"
       y="0"
       xlink:href="#path2-2-2-5"
       id="use4-1" />
    <use
       x="0"
       y="0"
       xlink:href="#path2-2-8"
       id="use3-6" />
    <path
       style="fill:url(#linearGradient104);stroke:url(#linearGradient105);stroke-width:0.5;stroke-dasharray:none;stroke-dashoffset:0;stroke-opacity:1"
       d="m 106.9742,174.17648 c 1.67967,-7.28607 19.98491,-19.2436 27.58119,-19.54428 l 1.46125,3.47049 c -8.60021,0.124 -26.30386,10.10697 -29.04244,16.07379 z"
       id="use2-7"
       sodipodi:nodetypes="cccc" />
    <path
       style="fill:url(#linearGradient111);stroke:url(#linearGradient109);stroke-width:0.5;stroke-dasharray:none;stroke-opacity:1"
       d="m 107.98545,175.13043 c 4.8873,-5.65881 26.65782,-7.68587 33.51562,-4.40494 l -0.32824,3.75125 c -7.66308,-3.90592 -27.97966,-3.34408 -33.18738,0.65369 z"
       id="path2-2-2-5"
       sodipodi:nodetypes="cccc" />
    <path
       style="fill:url(#linearGradient101);stroke:url(#linearGradient107);stroke-width:0.5;stroke-dasharray:none"
       d="m 107.6157,174.35046 c 3.4486,-6.63439 24.16276,-13.63353 31.59281,-12.02474 l 0.5468,3.72567 c -8.35788,-2.03095 -27.99571,3.20685 -32.13961,8.29907 z"
       id="path2-2-8"
       sodipodi:nodetypes="cccc" />
  </g>
  <circle
     style="fill:none;stroke:#000000;stroke-width:1.07676;stroke-dasharray:none;stroke-opacity:1"
     id="path1"
     cx="105.87411"
     cy="164.41722"
     r="48.382465" />
</svg>
